<svg viewBox="0 0 106.8 16.4" xmlns="http://www.w3.org/2000/svg"><g fill="#fff"><path d="m0 16.1h3.1l1.3-3.5h6.5l1.2 3.5h3.3l-5.9-15.8h-3.5zm7.7-12.9 2.4 6.9h-4.9l2.4-6.9zm9.5 5c0 4.7 3 8.2 7.8 8.2 4 0 6.5-2.2 7.1-5.5h-3a3.6 3.6 0 0 1 -4 2.8c-2.9 0-4.7-2.3-4.7-5.5 0-3.3 1.8-5.6 4.7-5.6a3.7 3.7 0 0 1 4 2.9h3c-.6-3.4-3-5.5-7-5.5-4.8 0-7.9 3.5-7.9 8.2zm18.8 7.8h3.1l-.1-11.3 4.9 11.3h2.1l5-11.5h.1l-.2 11.6h3v-15.8h-4l-4.9 11.6-4.8-11.6h-4.2zm22.7 0h11.7v-2.6h-8.6v-4.2h6.8v-2.4h-6.8v-4h8.4v-2.5h-11.5zm21.3-8c0 4.8 3 8.3 7.8 8.3 4 0 6.5-2.2 7-5.5h-3a3.6 3.6 0 0 1 -4 2.8c-2.8 0-4.7-2.3-4.7-5.5 0-3.3 1.9-5.6 4.8-5.6a3.7 3.7 0 0 1 3.9 2.9h3c-.5-3.4-3-5.5-7-5.5-4.6.1-7.8 3.6-7.8 8.3z"/><path d="m97.4 5.5a4.5 4.5 0 0 0 4.7 4.8 4.5 4.5 0 0 0 4.7-4.8 4.5 4.5 0 0 0 -4.7-4.8 4.5 4.5 0 0 0 -4.7 4.8zm1.9 0a3 3 0 0 1 2.8-3.2 3 3 0 0 1 2.9 3.2 3 3 0 0 1 -2.9 3.2 3 3 0 0 1 -2.8-3.2z"/></g></svg>